<svg width="12" height="15" viewBox="0 0 12 15" fill="none" xmlns="http://www.w3.org/2000/svg">
<path fill-rule="evenodd" clip-rule="evenodd" d="M6.5 0C7.88071 0 9 1.11929 9 2.5V3H12V4.5H0V3H3V2.5C3 1.11929 4.11929 0 5.5 0H6.5ZM2.5 6V12C2.5 12.7797 3.09489 13.4204 3.85554 13.4931L4 13.5H8C8.7797 13.5 9.42045 12.9051 9.49313 12.1445L9.5 12V6H11V12C11 13.6569 9.65685 15 8 15H4C2.34315 15 1 13.6569 1 12V6H2.5ZM5.5 6V11.9944H4V6H5.5ZM7.99847 11.9944V6H6.49847V11.9944H7.99847ZM5.5 1.5H6.5L6.61662 1.50673C7.11396 1.56449 7.5 1.98716 7.5 2.5V2.99962H4.5V2.5L4.50673 2.38338C4.56449 1.88604 4.98716 1.5 5.5 1.5Z" fill="#666666"/>
</svg>
