<svg width="14" height="14" viewBox="0 0 14 14" fill="none" xmlns="http://www.w3.org/2000/svg">
<path d="M1.99062 13.2402C1.62684 13.2402 1.31428 13.1105 1.05292 12.8509C0.791566 12.5914 0.660889 12.2811 0.660889 11.9199L0.660889 2.08948C0.660889 1.7257 0.791566 1.41314 1.05292 1.15178C1.31428 0.890438 1.62684 0.759766 1.99062 0.759766L6.90655 0.759766L6.90655 2.08948L1.99062 2.08948L1.99062 11.9199L6.90655 11.9199L6.90655 13.2402L1.99062 13.2402ZM10.1095 10.2605L9.15727 9.32717L10.8196 7.66485L5.12757 7.66485L5.12757 6.34455L10.7863 6.34455L9.12394 4.68223L10.0761 3.74888L13.3392 7.02137L10.1095 10.2605Z" fill="white"/>
</svg>
