<?xml version="1.0" encoding="UTF-8"?>
<svg version="1.1" xmlns="http://www.w3.org/2000/svg" width="48" height="48">
<path d="M0 0 C0.7125293 -0.00717041 1.42505859 -0.01434082 2.15917969 -0.02172852 C8.75637728 0.20578747 12.99174123 2.69056803 18 7 C24.0450374 14.02531373 25.26275096 19.57721396 24.81640625 28.73046875 C23.83921215 36.4040937 20.52726992 41.13756388 14.62109375 45.93359375 C7.95628471 50.2223362 0.41538982 49.36669577 -7.1875 49.125 C-8.67965116 49.10343806 -10.17184325 49.08453652 -11.6640625 49.06835938 C-22.47404716 48.90095284 -22.47404716 48.90095284 -23.6875 47.6875 C-23.97993324 43.41723443 -24.00176997 39.14080433 -24.03759766 34.86181641 C-24.05403708 33.42642874 -24.08116589 31.99111876 -24.11962891 30.55615234 C-24.39208864 20.33298941 -23.49012827 13.2574655 -16.609375 5.27734375 C-11.18604925 1.15132434 -6.66601645 0.05841057 0 0 Z " fill="#52A2DA" transform="translate(23.6875,-0.6875)"/>
<path d="M0 0 C4.44214988 0.77932454 5.96462519 1.97173855 8.5625 5.625 C8.375 8.4375 8.375 8.4375 7.5625 10.625 C6.5725 10.625 5.5825 10.625 4.5625 10.625 C3.9025 8.975 3.2425 7.325 2.5625 5.625 C0.9125 5.955 -0.7375 6.285 -2.4375 6.625 C-2.7675 8.935 -3.0975 11.245 -3.4375 13.625 C-1.7875 13.625 -0.1375 13.625 1.5625 13.625 C1.8925 14.945 2.2225 16.265 2.5625 17.625 C0.5825 17.625 -1.3975 17.625 -3.4375 17.625 C-3.38529297 18.52992187 -3.38529297 18.52992187 -3.33203125 19.453125 C-3.11022727 26.00162338 -3.11022727 26.00162338 -4.75 29.125 C-7.3057203 31.39675138 -9.51133948 31.63305522 -12.875 32 C-16.4375 31.625 -16.4375 31.625 -18.875 29.625 C-20.8617011 25.81053389 -21.5574021 22.83311699 -20.4375 18.625 C-17.3962721 15.14931097 -15.69461841 13.74139985 -11.0625 13.3125 C-10.19625 13.415625 -9.33 13.51875 -8.4375 13.625 C-8.4375 15.275 -8.4375 16.925 -8.4375 18.625 C-10.7475 18.955 -13.0575 19.285 -15.4375 19.625 C-15.48004356 21.62454746 -15.47830783 23.62541636 -15.4375 25.625 C-14.3779123 26.90822547 -14.3779123 26.90822547 -11.9375 26.75 C-9.4970877 26.90822547 -9.4970877 26.90822547 -8.4375 25.625 C-8.32908328 24.19561606 -8.28176257 22.76147454 -8.26171875 21.328125 C-8.23787109 20.4515625 -8.21402344 19.575 -8.18945312 18.671875 C-8.14684967 16.82314343 -8.11540253 14.97411747 -8.09570312 13.125 C-7.961827 8.86587124 -7.8075818 6.25287382 -5.609375 2.5234375 C-3.4375 0.625 -3.4375 0.625 0 0 Z " fill="#EBF4FA" transform="translate(28.4375,9.375)"/>
</svg>
