<svg width="17" height="16" viewBox="0 0 17 16" fill="none" xmlns="http://www.w3.org/2000/svg">
<path fill-rule="evenodd" clip-rule="evenodd" d="M16.3105 8C16.3105 3.58172 12.7288 0 8.31055 0C3.89227 0 0.310547 3.58172 0.310547 8C0.310547 12.4183 3.89227 16 8.31055 16C12.7288 16 16.3105 12.4183 16.3105 8ZM1.81055 8C1.81055 4.41015 4.7207 1.5 8.31055 1.5C11.9004 1.5 14.8105 4.41015 14.8105 8C14.8105 11.5899 11.9004 14.5 8.31055 14.5C4.7207 14.5 1.81055 11.5899 1.81055 8ZM8.81055 10C9.08669 10 9.31055 10.2239 9.31055 10.5V11.5C9.31055 11.7761 9.08669 12 8.81055 12H7.81055C7.5344 12 7.31055 11.7761 7.31055 11.5V10.5C7.31055 10.2239 7.5344 10 7.81055 10H8.81055ZM9.58993 4.02534C9.29888 3.90611 8.92893 3.8465 8.48008 3.8465C8.1224 3.8465 7.75771 3.89384 7.38601 3.98852C7.08864 4.06426 6.8227 4.16581 6.58817 4.29318L6.41817 4.39354L6.86001 5.58229L7.06055 5.48432C7.25648 5.39359 7.43861 5.32455 7.60692 5.27721C7.83135 5.21409 8.0698 5.18253 8.32228 5.18253C8.57476 5.18253 8.76587 5.24214 8.89562 5.36137C9.02536 5.4806 9.09023 5.62437 9.09023 5.79269C9.09023 5.99607 9.02361 6.17666 8.89036 6.33446C8.7571 6.49226 8.60982 6.65181 8.44852 6.81312L8.28283 6.98407L8.1224 7.16028C8.0172 7.2795 7.92428 7.40749 7.84362 7.54425C7.76297 7.68101 7.6981 7.82829 7.649 7.98609C7.59991 8.14389 7.57536 8.32098 7.57536 8.51735L7.58062 8.74352L7.58983 8.86845L7.60692 8.98022H8.99555L8.98766 8.91184L8.98503 8.83294V8.70671L8.99322 8.58806C9.00413 8.50936 9.02595 8.43143 9.05867 8.35429C9.10777 8.23857 9.16913 8.12811 9.24277 8.02291C9.31641 7.91771 9.39882 7.81777 9.48999 7.72309L9.92394 7.28126L10.1001 7.09716C10.2194 6.97092 10.3246 6.83767 10.4157 6.6974C10.5069 6.55713 10.5823 6.40459 10.6419 6.23978C10.7015 6.07497 10.7313 5.89438 10.7313 5.69801C10.7313 5.50163 10.698 5.29474 10.6314 5.07733C10.5648 4.85992 10.4473 4.66004 10.279 4.4777C10.1107 4.29535 9.88098 4.14456 9.58993 4.02534Z" fill="white"/>
</svg>
