<svg width="24" height="30" viewBox="0 0 24 30" fill="none" xmlns="http://www.w3.org/2000/svg">
<path fill-rule="evenodd" clip-rule="evenodd" d="M20 8C20 3.58172 16.4183 0 12 0C7.58172 0 4 3.58172 4 8V10H3C1.34315 10 0 11.3431 0 13V27C0 28.6569 1.34315 30 3 30H21C22.6569 30 24 28.6569 24 27V13C24 11.3431 22.6569 10 21 10H20V8ZM3 27V13H21V27H3ZM12 14.6666C13.932 14.6666 15.4982 16.2328 15.4982 18.1648C15.4982 19.5589 14.6828 20.7625 13.5029 21.3246L13.5 24.8538H10.5L10.4991 21.3256C9.31812 20.7638 8.50179 19.5597 8.50179 18.1648C8.50179 16.2328 10.068 14.6666 12 14.6666ZM7.01064 7.67125C7.17992 5.06307 9.34903 3 12 3C14.7614 3 17 5.23858 17 8V10H7V8L7.01064 7.67125Z" fill="#666666"/>
</svg>
