<svg width="28" height="32" viewBox="0 0 28 32" fill="none" xmlns="http://www.w3.org/2000/svg">
<path fill-rule="evenodd" clip-rule="evenodd" d="M22.9927 10.2026L22.9929 0.890625H20.1694L20.1692 10.2026L17.6551 7.69036L15.9913 9.35414L21.5812 14.944L27.1711 9.35414L25.5073 7.69036L22.9927 10.2026ZM27.1772 22.5878C27.1772 19.469 24.6489 16.9407 21.5301 16.9407H6.47128C3.35249 16.9407 0.824219 19.469 0.824219 22.5878V26.3525C0.824219 29.4713 3.35249 31.9995 6.47128 31.9995H21.5301C24.6489 31.9995 27.1772 29.4713 27.1772 26.3525V22.5878ZM6.47128 19.7642H21.5301L21.802 19.7772C23.2338 19.914 24.3536 21.1201 24.3536 22.5878V26.3525L24.3407 26.6244C24.2039 28.0562 22.9978 29.176 21.5301 29.176H6.47128L6.19935 29.1631C4.76754 29.0263 3.64775 27.8201 3.64775 26.3525V22.5878L3.66067 22.3159C3.79749 20.884 5.00361 19.7642 6.47128 19.7642ZM20.5889 22.5878C21.1087 22.5878 21.5301 23.0092 21.5301 23.529V25.4113C21.5301 25.9311 21.1087 26.3525 20.5889 26.3525H18.7066C18.1868 26.3525 17.7654 25.9311 17.7654 25.4113V23.529C17.7654 23.0092 18.1868 22.5878 18.7066 22.5878H20.5889Z" fill="#666666"/>
</svg>
