<svg width="12" height="13" viewBox="0 0 12 13" fill="none" xmlns="http://www.w3.org/2000/svg">
<path d="M5.02378 0.782835L4.59128 1.18391C4.24058 1.50918 3.78478 1.69798 3.30668 1.71608L2.71808 1.73828C1.96808 1.76658 1.36658 2.36808 1.33828 3.11808L1.31608 3.70668C1.29798 4.18478 1.10918 4.64057 0.783905 4.99127L0.382835 5.42378C-0.127775 5.97438 -0.127775 6.82538 0.382835 7.37598L0.783905 7.80848C1.10918 8.15917 1.29798 8.61497 1.31608 9.09307L1.33828 9.68167C1.36658 10.4319 1.96808 11.0329 2.71808 11.0619L3.30668 11.0839C3.78478 11.1019 4.24058 11.2909 4.59128 11.6159L5.02378 12.0169C5.57438 12.5279 6.42538 12.5279 6.97598 12.0169L7.40848 11.6159C7.75918 11.2909 8.21498 11.1019 8.69308 11.0839L9.28168 11.0619C10.0319 11.0329 10.6329 10.4319 10.6619 9.68167L10.6839 9.09307C10.7019 8.61497 10.8909 8.15917 11.2159 7.80848L11.6169 7.37598C12.1279 6.82538 12.1279 5.97438 11.6169 5.42378L11.2159 4.99127C10.8909 4.64057 10.7019 4.18478 10.6839 3.70668L10.6619 3.11808C10.6329 2.36808 10.0319 1.76658 9.28168 1.73828L8.69308 1.71608C8.21498 1.69798 7.75918 1.50918 7.40848 1.18391L6.97598 0.782835C6.42538 0.272225 5.57438 0.272225 5.02378 0.782835ZM8.39348 3.95394L9.26098 4.81043L5.05478 9.05153L2.73878 6.71174L3.59988 5.85683L5.05478 7.32273L8.39348 3.95394Z" fill="#82BEA0"/>
</svg>
