<svg width="16" height="18" viewBox="0 0 16 18" fill="none" xmlns="http://www.w3.org/2000/svg">
    <path d="M12 0.419922C12.7957 0.419922 13.5587 0.690839 14.1213 1.17308C14.6839 1.65531 15 2.30937 15 2.99135V4.49135C15 5.29535 14.569 6.01364 13.894 6.48506C14.2401 6.7257 14.519 7.02962 14.7104 7.37458C14.9018 7.71954 15.0007 8.09681 15 8.47878V9.97878C15 10.6608 14.6839 11.3148 14.1213 11.7971C13.5587 12.2793 12.7957 12.5502 12 12.5502H4C3.20435 12.5502 2.44129 12.2793 1.87868 11.7971C1.31607 11.3148 1 10.6608 1 9.97878V8.47878C1 7.67307 1.431 6.95564 2.106 6.48421C1.75992 6.24357 1.48099 5.93966 1.28962 5.5947C1.09826 5.24974 0.999303 4.87246 1 4.49049V2.99135C1 2.30937 1.31607 1.65531 1.87868 1.17308C2.44129 0.690839 3.20435 0.419922 4 0.419922H12ZM12 7.19307H4C3.62728 7.19306 3.2679 7.312 2.9919 7.52671C2.71589 7.74142 2.54303 8.03651 2.507 8.35449L2.5 8.47878V9.97878C2.50002 10.2984 2.63892 10.6065 2.88962 10.8431C3.14032 11.0797 3.48484 11.2278 3.856 11.2585L4 11.2645H12C12.3729 11.2645 12.7324 11.1454 13.0084 10.9305C13.2845 10.7156 13.4572 10.4203 13.493 10.1022L13.5 9.97878V8.47878C13.5002 8.15902 13.3614 7.85066 13.1107 7.61388C12.86 7.3771 12.5153 7.2289 12.144 7.19821L12 7.19307ZM11.5 8.14278C11.6326 8.14278 11.7598 8.18793 11.8536 8.2683C11.9473 8.34868 12 8.45769 12 8.57135V9.42849C12 9.54216 11.9473 9.65117 11.8536 9.73154C11.7598 9.81191 11.6326 9.85707 11.5 9.85707H10.5C10.3674 9.85707 10.2402 9.81191 10.1465 9.73154C10.0527 9.65117 10 9.54216 10 9.42849V8.57135C10 8.45769 10.0527 8.34868 10.1465 8.2683C10.2402 8.18793 10.3674 8.14278 10.5 8.14278H11.5ZM12 1.70564H4C3.62728 1.70563 3.2679 1.82457 2.9919 2.03928C2.71589 2.25399 2.54303 2.54908 2.507 2.86706L2.5 2.99049V4.49049C2.50002 4.81011 2.63892 5.11826 2.88962 5.35485C3.14032 5.59145 3.48484 5.73952 3.856 5.77021L4 5.77706H12C12.3727 5.77707 12.7321 5.65813 13.0081 5.44342C13.2841 5.22871 13.457 4.93362 13.493 4.61564L13.5 4.49135V2.99135C13.5 2.67174 13.3611 2.36359 13.1104 2.12699C12.8597 1.8904 12.5152 1.74232 12.144 1.71164L12 1.70564ZM11.5 2.99992C11.6326 2.99992 11.7598 3.04507 11.8536 3.12545C11.9473 3.20582 12 3.31483 12 3.42849V4.28564C12 4.3993 11.9473 4.50831 11.8536 4.58868C11.7598 4.66905 11.6326 4.71421 11.5 4.71421H10.5C10.3674 4.71421 10.2402 4.66905 10.1465 4.58868C10.0527 4.50831 10 4.3993 10 4.28564V3.42849C10 3.31483 10.0527 3.20582 10.1465 3.12545C10.2402 3.04507 10.3674 2.99992 10.5 2.99992H11.5Z" fill="black"/>
    <path d="M12 5.57129C12.7957 5.57129 13.5587 5.84221 14.1213 6.32444C14.6839 6.80668 15 7.46073 15 8.14272V9.64272C15 10.4467 14.569 11.165 13.894 11.6364C14.2401 11.8771 14.519 12.181 14.7104 12.5259C14.9018 12.8709 15.0007 13.2482 15 13.6301V15.1301C15 15.8121 14.6839 16.4662 14.1213 16.9484C13.5587 17.4307 12.7957 17.7016 12 17.7016H4C3.20435 17.7016 2.44129 17.4307 1.87868 16.9484C1.31607 16.4662 1 15.8121 1 15.1301V13.6301C1 12.8244 1.431 12.107 2.106 11.6356C1.75992 11.3949 1.48099 11.091 1.28962 10.7461C1.09826 10.4011 0.999303 10.0238 1 9.64186V8.14272C1 7.46073 1.31607 6.80668 1.87868 6.32444C2.44129 5.84221 3.20435 5.57129 4 5.57129H12ZM12 12.3444H4C3.62728 12.3444 3.2679 12.4634 2.9919 12.6781C2.71589 12.8928 2.54303 13.1879 2.507 13.5059L2.5 13.6301V15.1301C2.50002 15.4498 2.63892 15.7579 2.88962 15.9945C3.14032 16.2311 3.48484 16.3792 3.856 16.4099L4 16.4159H12C12.3729 16.4158 12.7324 16.2968 13.0084 16.0819C13.2845 15.867 13.4572 15.5717 13.493 15.2536L13.5 15.1301V13.6301C13.5002 13.3104 13.3614 13.002 13.1107 12.7652C12.86 12.5285 12.5153 12.3803 12.144 12.3496L12 12.3444ZM11.5 13.2941C11.6326 13.2941 11.7598 13.3393 11.8536 13.4197C11.9473 13.5 12 13.6091 12 13.7227V14.5799C12 14.6935 11.9473 14.8025 11.8536 14.8829C11.7598 14.9633 11.6326 15.0084 11.5 15.0084H10.5C10.3674 15.0084 10.2402 14.9633 10.1465 14.8829C10.0527 14.8025 10 14.6935 10 14.5799V13.7227C10 13.6091 10.0527 13.5 10.1465 13.4197C10.2402 13.3393 10.3674 13.2941 10.5 13.2941H11.5ZM12 6.857H4C3.62728 6.857 3.2679 6.97594 2.9919 7.19064C2.71589 7.40535 2.54303 7.70045 2.507 8.01843L2.5 8.14186V9.64186C2.50002 9.96147 2.63892 10.2696 2.88962 10.5062C3.14032 10.7428 3.48484 10.8909 3.856 10.9216L4 10.9284H12C12.3727 10.9284 12.7321 10.8095 13.0081 10.5948C13.2841 10.3801 13.457 10.085 13.493 9.767L13.5 9.64272V8.14272C13.5 7.8231 13.3611 7.51495 13.1104 7.27836C12.8597 7.04176 12.5152 6.89369 12.144 6.863L12 6.857ZM11.5 8.15129C11.6326 8.15129 11.7598 8.19644 11.8536 8.27681C11.9473 8.35719 12 8.4662 12 8.57986V9.437C12 9.55067 11.9473 9.65968 11.8536 9.74005C11.7598 9.82042 11.6326 9.86557 11.5 9.86557H10.5C10.3674 9.86557 10.2402 9.82042 10.1465 9.74005C10.0527 9.65968 10 9.55067 10 9.437V8.57986C10 8.4662 10.0527 8.35719 10.1465 8.27681C10.2402 8.19644 10.3674 8.15129 10.5 8.15129H11.5Z" fill="black"/>
</svg>
