<svg width="14" height="16" viewBox="0 0 14 16" fill="none" xmlns="http://www.w3.org/2000/svg">
<path fill-rule="evenodd" clip-rule="evenodd" d="M7.95575 1.79502C7.98451 1.70177 7.99998 1.60269 7.99998 1.5C7.99998 0.947715 7.55227 0.5 6.99998 0.5C6.4477 0.5 5.99998 0.947715 5.99998 1.5C5.99998 1.60255 6.01542 1.7015 6.0441 1.79464C3.56999 2.11426 2.24466 3.73558 2.25294 6.47665L2.25294 9.48815C2.25294 10.2187 1.71544 11.0259 0.551288 11.8951C-0.0269141 12.3268 0.278405 13.246 0.999987 13.246H4.00993C4.13508 14.7878 5.42597 16 6.99998 16C8.574 16 9.86489 14.7878 9.99004 13.246H13.0019C13.7233 13.246 14.0287 12.3271 13.4508 11.8953C12.2877 11.0261 11.7507 10.2189 11.7507 9.48815V6.47439C11.7543 3.7358 10.4279 2.11546 7.95575 1.79502ZM5.52006 13.246H8.4799C8.36252 13.9574 7.74462 14.5 6.99998 14.5C6.25535 14.5 5.63745 13.9574 5.52006 13.246ZM6.99839 3.23611C9.25626 3.23611 10.2536 4.22996 10.2507 6.4734V9.48815L10.2573 9.69045C10.3013 10.3624 10.5648 11.0102 11.0349 11.636L11.121 11.746H2.88099L2.96802 11.6362C3.48553 10.9478 3.75294 10.2327 3.75294 9.48815V6.47439C3.74616 4.22918 4.74101 3.23611 6.99839 3.23611Z" fill="#F99B11"/>
</svg>
