<svg width="14" height="16" viewBox="0 0 14 16" fill="none" xmlns="http://www.w3.org/2000/svg">
<path fill-rule="evenodd" clip-rule="evenodd" d="M11 0.923859C12.6569 0.923859 14 2.267 14 3.92386V5.67386C14 6.61259 13.5688 7.45061 12.8938 8.00071C13.5688 8.54937 14 9.38739 14 10.3261V12.0761C14 13.733 12.6569 15.0761 11 15.0761H3C1.34315 15.0761 0 13.733 0 12.0761V10.3261C0 9.38739 0.431154 8.54937 1.10624 7.99927C0.431154 7.45061 0 6.61259 0 5.67386V3.92386C0 2.267 1.34315 0.923859 3 0.923859H11ZM11 8.82612H3C2.2203 8.82612 1.57955 9.42101 1.50687 10.1817L1.5 10.3261V12.0761C1.5 12.8558 2.09489 13.4966 2.85554 13.5693L3 13.5761H11C11.7797 13.5761 12.4204 12.9812 12.4931 12.2206L12.5 12.0761V10.3261C12.5 9.54642 11.9051 8.90567 11.1445 8.83298L11 8.82612ZM11 10.4346C11 10.1584 10.7761 9.93455 10.5 9.93455H9.5C9.22386 9.93455 9 10.1584 9 10.4346V11.4346C9 11.7107 9.22386 11.9346 9.5 11.9346H10.5C10.7761 11.9346 11 11.7107 11 11.4346V10.4346ZM11 2.42386H3C2.2203 2.42386 1.57955 3.01875 1.50687 3.7794L1.5 3.92386V5.67386C1.5 6.45355 2.09489 7.09431 2.85554 7.16699L3 7.17386H11C11.7797 7.17386 12.4204 6.57897 12.4931 5.81832L12.5 5.67386V3.92386C12.5 3.14416 11.9051 2.50341 11.1445 2.43073L11 2.42386ZM11 4.43455C11 4.15841 10.7761 3.93455 10.5 3.93455H9.5C9.22386 3.93455 9 4.15841 9 4.43455V5.43455C9 5.7107 9.22386 5.93455 9.5 5.93455H10.5C10.7761 5.93455 11 5.7107 11 5.43455V4.43455Z" fill="white"/>
</svg>
