<svg width="16" height="18" viewBox="0 0 16 18" fill="none" xmlns="http://www.w3.org/2000/svg">
<path d="M15.9772 15.7714C15.9772 16.64 15.2686 17.3486 14.4 17.3486C13.5314 17.3486 12.8229 16.64 12.8229 15.7714C12.8229 14.9029 13.5314 14.1943 14.4 14.1943C15.2686 14.1943 15.9772 14.9029 15.9772 15.7714Z" fill="white"/>
<path d="M3.18859 15.7714C3.18859 16.64 2.48002 17.3486 1.61144 17.3486C0.742873 17.3486 0.0343018 16.64 0.0343018 15.7714C0.0343018 14.9029 0.742873 14.1943 1.61144 14.1943C2.48002 14.1943 3.18859 14.9029 3.18859 15.7714Z" fill="white"/>
<path d="M9.60002 14.1943C9.60002 15.0743 8.88002 15.7943 8.00002 15.7943C7.12002 15.7943 6.40002 15.0743 6.40002 14.1943C6.40002 13.3143 7.12002 12.5943 8.00002 12.5943C8.88002 12.5943 9.60002 13.3143 9.60002 14.1943Z" fill="white"/>
<path d="M13.1085 3.50858C13.4171 4.06858 13.4285 4.6743 13.4285 4.6743V13.3829C13.7257 13.2572 14.0571 13.1886 14.4 13.1886C14.7428 13.1886 15.0743 13.2572 15.3714 13.3829V4.6743C15.3714 4.57144 15.36 3.6343 14.8685 2.6743C14.1828 1.32573 12.88 0.594299 11.2114 0.594299C9.8514 0.594299 8.74283 1.08573 7.99997 2.00001C7.25711 1.08573 6.14854 0.594299 4.78854 0.594299C3.11997 0.594299 1.82854 1.33716 1.1314 2.6743C0.639968 3.6343 0.62854 4.57144 0.62854 4.6743V13.3829C0.925683 13.2572 1.25711 13.1886 1.59997 13.1886C1.94283 13.1886 2.27425 13.2572 2.5714 13.3829V4.6743C2.5714 4.6743 2.58283 4.06858 2.8914 3.50858C3.24568 2.84573 3.87425 2.52573 4.79997 2.52573C5.72568 2.52573 6.35425 2.85716 6.71997 3.54287C7.02854 4.12573 7.03997 4.7543 7.03997 4.7543V11.8057C7.33711 11.68 7.66854 11.6114 8.0114 11.6114C8.35425 11.6114 8.68568 11.68 8.98283 11.8057V4.76573C8.98283 4.76573 8.99426 4.12573 9.30283 3.5543C9.66854 2.86859 10.2971 2.53716 11.2228 2.53716C12.1485 2.53716 12.7657 2.85716 13.1314 3.52001L13.1085 3.50858Z" fill="white"/>
</svg>
