<svg width="16" height="16" viewBox="0 0 16 16" fill="none" xmlns="http://www.w3.org/2000/svg">
<path fill-rule="evenodd" clip-rule="evenodd" d="M13.4661 2.74789C12.4889 1.73125 11.2309 0.986595 9.81685 0.638765L8.54846 2.14306C8.3679 2.12637 8.18497 2.11783 8.00005 2.11783C7.81512 2.11783 7.63219 2.12637 7.45163 2.14306L6.18387 0.638611C4.76953 0.986375 3.51129 1.7311 2.53404 2.74789L3.20156 4.59704C2.99029 4.89441 2.80597 5.21227 2.65216 5.54705L0.71638 5.8929C0.523197 6.56186 0.419678 7.26885 0.419678 8.00002C0.419678 8.73122 0.523207 9.43825 0.716406 10.1072L2.65216 10.453C2.80597 10.7878 2.99029 11.1056 3.20156 11.403L2.53404 13.2522C3.51129 14.2689 4.76953 15.0137 6.18387 15.3614L7.45163 13.857C7.63219 13.8737 7.81512 13.8822 8.00005 13.8822C8.18497 13.8822 8.3679 13.8737 8.54846 13.857L9.81685 15.3613C11.2309 15.0134 12.4889 14.2688 13.4661 13.2522L12.7985 11.403C13.0098 11.1056 13.1941 10.7878 13.3479 10.453L15.2837 10.1072C15.4769 9.43825 15.5804 8.73122 15.5804 8.00002C15.5804 7.26885 15.4769 6.56186 15.2837 5.8929L13.3479 5.54705C13.1941 5.21227 13.0098 4.89441 12.7985 4.59704L13.4661 2.74789ZM9.19032 3.7088L10.313 2.37602L10.5368 2.47212C10.8819 2.63077 11.2112 2.82156 11.5205 3.04169L11.713 3.18602L11.1211 4.82597L11.5757 5.4658L11.7268 5.69308C11.8227 5.8476 11.9089 6.00796 11.9849 6.17327L12.3122 6.88576L14.024 7.19102L14.042 7.31115C14.0675 7.53834 14.0804 7.76819 14.0804 8.00002L14.0708 8.34621C14.0643 8.46105 14.0547 8.57532 14.042 8.68892L14.024 8.80802L12.3123 9.11424L11.9849 9.82677L11.8633 10.0709C11.7773 10.2311 11.6812 10.3858 11.5757 10.5342L11.1211 11.1741L11.713 12.813L11.5205 12.9584C11.2112 13.1785 10.8819 13.3693 10.5368 13.5279L10.313 13.623L9.19032 12.2912L8.41037 12.3634L8.20604 12.3775L8.00005 12.3822C7.86221 12.3822 7.72535 12.3759 7.58972 12.3634L6.80949 12.2912L5.68605 13.623L5.4636 13.5281C5.11848 13.3694 4.78913 13.1786 4.47972 12.9585L4.28605 12.813L4.87895 11.1741L4.42437 10.5342L4.27329 10.307C4.17737 10.1524 4.09114 9.99209 4.01519 9.82677L3.68783 9.11424L1.97505 8.80802L1.95813 8.68892C1.93259 8.46172 1.91968 8.23186 1.91968 8.00002L1.92932 7.65385C1.93574 7.53901 1.94536 7.42475 1.95813 7.31115L1.97505 7.19102L3.68785 6.88576L4.01519 6.17327L4.13675 5.92913C4.22284 5.76899 4.3189 5.61425 4.42437 5.4658L4.87895 4.82597L4.28605 3.18602L4.47972 3.04159C4.78913 2.82144 5.11848 2.63063 5.4636 2.47198L5.68605 2.37602L6.80949 3.70883L7.58972 3.63669L7.79405 3.62256L8.00005 3.61783C8.13789 3.61783 8.27474 3.62415 8.41037 3.63669L9.19032 3.7088ZM8.00005 5.00002C9.6569 5.00002 11 6.34317 11 8.00002C11 9.65687 9.6569 11 8.00005 11C6.34319 11 5.00005 9.65687 5.00005 8.00002C5.00005 6.34317 6.34319 5.00002 8.00005 5.00002ZM6.50005 8.00002C6.50005 7.17159 7.17162 6.50002 8.00005 6.50002C8.82847 6.50002 9.50005 7.17159 9.50005 8.00002C9.50005 8.82845 8.82847 9.50002 8.00005 9.50002C7.17162 9.50002 6.50005 8.82845 6.50005 8.00002Z" fill="white"/>
</svg>
