<svg width="28" height="24" viewBox="0 0 28 24" fill="none" xmlns="http://www.w3.org/2000/svg">
<path fill-rule="evenodd" clip-rule="evenodd" d="M8.76953 2.94066V0.180664H5.34953V3.09066L4.89593 3.20766C4.31033 3.37566 3.80153 3.59166 3.36953 3.85566C2.82953 4.18566 2.39453 4.57066 2.06453 5.01066C1.73453 5.45066 1.49453 5.93066 1.34453 6.45066C1.19453 6.97066 1.11953 7.51066 1.11953 8.07066C1.11953 8.85066 1.25453 9.50566 1.52453 10.0357C1.79453 10.5657 2.14953 11.0157 2.58953 11.3857C3.02953 11.7557 3.52953 12.0707 4.08953 12.3307C4.64953 12.5907 5.21953 12.8207 5.79953 13.0207L7.41953 13.6057C7.89953 13.7757 8.30453 13.9657 8.63453 14.1757C8.96453 14.3857 9.21453 14.6207 9.38453 14.8807C9.55453 15.1407 9.63953 15.4507 9.63953 15.8107C9.63953 16.4307 9.41953 16.8857 8.97953 17.1757C8.53953 17.4657 7.75953 17.6107 6.63953 17.6107C5.67953 17.6107 4.76953 17.4857 3.90953 17.2357C3.22153 17.0357 2.60393 16.8197 2.05673 16.5877L1.65953 16.4107L0.519531 19.3507L0.725781 19.4632C1.09661 19.6548 1.60286 19.8673 2.24453 20.1007C2.90453 20.3407 3.74453 20.5219 4.76453 20.6443L5.28953 20.7007V23.8807H8.70953V20.6707L9.15661 20.5927C9.88023 20.4497 10.4962 20.2407 11.0045 19.9657C11.6145 19.6357 12.1045 19.2457 12.4745 18.7957C12.8445 18.3457 13.1095 17.8557 13.2695 17.3257C13.4295 16.7957 13.5095 16.2607 13.5095 15.7207C13.5095 14.9407 13.3745 14.2607 13.1045 13.6807C12.8345 13.1007 12.4595 12.5957 11.9795 12.1657C11.4995 11.7357 10.9295 11.3557 10.2695 11.0257C9.60953 10.6957 8.88953 10.3807 8.10953 10.0807C7.84953 9.99066 7.60703 9.90441 7.38203 9.82191L6.75953 9.58566C6.37953 9.43566 6.05453 9.28066 5.78453 9.12066C5.51453 8.96066 5.31453 8.77566 5.18453 8.56566C5.05453 8.35566 4.98953 8.09066 4.98953 7.77066C4.98953 7.31066 5.17453 6.91066 5.54453 6.57066C5.91453 6.23066 6.57953 6.06066 7.53953 6.06066C8.37953 6.06066 9.19453 6.15566 9.98453 6.34566C10.6165 6.49766 11.1813 6.66566 11.6789 6.84966L12.0395 6.99066L12.8795 3.90066L12.6209 3.80226C12.2513 3.66786 11.7825 3.52066 11.2145 3.36066C10.6465 3.20066 10.0113 3.07906 9.30893 2.99586L8.76953 2.94066ZM27.9748 21.5005V18.5005H15.9642V21.5005H27.9748Z" fill="#666666"/>
</svg>
