<svg width="63" height="60" viewBox="0 0 63 60" fill="none" xmlns="http://www.w3.org/2000/svg">
<path d="M43.7635 42.2796C48.6569 42.2796 52.6237 46.2464 52.6237 51.1398C52.6237 56.0332 48.6569 60 43.7635 60C38.8702 60 34.9033 56.0332 34.9033 51.1398C34.9033 46.2464 38.8702 42.2796 43.7635 42.2796ZM14.1281 39.8682C17.0985 45.6293 22.5014 49.75 28.843 51.0909C29.5578 51.2439 30.2867 51.3623 31.0164 51.4434C31.0758 54.1249 31.9841 56.7185 33.6106 58.8512C31.4962 58.8638 29.3866 58.6468 27.319 58.2037C17.9332 56.2168 10.1495 49.6934 6.5525 40.7994C9.11354 41.2695 11.7571 40.9446 14.1281 39.8682ZM57.5455 13.8739C64.4704 24.3315 63.8842 38.0564 56.0929 47.8854C55.4114 45.2929 53.9273 42.9823 51.8531 41.2843C55.8995 34.7275 56.1696 26.5178 52.5631 19.7091C54.7828 18.3208 56.5221 16.2837 57.5455 13.8739ZM8.86021 19.4281C13.7536 19.4281 17.7204 23.3949 17.7204 28.2883C17.7204 33.1816 13.7536 37.1485 8.86021 37.1485C3.96685 37.1485 0 33.1816 0 28.2883C0 23.3949 3.96685 19.4281 8.86021 19.4281ZM45.7597 0C50.653 0 54.6199 3.96685 54.6199 8.86021C54.6199 13.7536 50.653 17.7204 45.7597 17.7204C40.8663 17.7204 36.8995 13.7536 36.8995 8.86021C36.8995 3.96685 40.8663 0 45.7597 0ZM35.6585 0.985715C34.0516 3.05123 33.1138 5.55823 32.9706 8.17129C26.0103 8.28953 19.5333 11.7536 15.5708 17.477C13.5521 16.2278 11.2255 15.5653 8.85153 15.5636C8.62644 15.5635 8.40146 15.5696 8.17659 15.5819C13.6903 5.85288 24.5167 0.103354 35.6585 0.985715Z" fill="#E95420"/>
</svg>
