<?xml version="1.0" encoding="utf-8"?>
<!-- Generator: Adobe Illustrator 25.4.6, SVG Export Plug-In . SVG Version: 6.00 Build 0)  -->
<svg version="1.1"
	 id="Layer_1" xmlns:cc="http://creativecommons.org/ns#" xmlns:dc="http://purl.org/dc/elements/1.1/" xmlns:rdf="http://www.w3.org/1999/02/22-rdf-syntax-ns#" xmlns:svg="http://www.w3.org/2000/svg"
	 xmlns="http://www.w3.org/2000/svg" xmlns:xlink="http://www.w3.org/1999/xlink" x="0px" y="0px" viewBox="0 0 104.2 104.2"
	 style="enable-background:new 0 0 104.2 104.2;" xml:space="preserve">
<style type="text/css">
	.st0{fill:#E9500E;}
	.st1{fill:#FFFFFF;}
</style>
<g>
	<rect x="1" y="1" class="st0" width="102.2" height="102.2"/>
	<path class="st1" d="M86,81c0,3.7-3,6.7-6.7,6.7c-3.7,0-6.7-3-6.7-6.7s3-6.7,6.7-6.7C83.1,74.3,86,77.3,86,81z"/>
	<path class="st1" d="M31.6,81c0,3.7-3,6.7-6.7,6.7s-6.7-3-6.7-6.7c0-3.7,3-6.7,6.7-6.7l0,0C28.5,74.3,31.6,77.3,31.6,81z"/>
	<path class="st1" d="M59,74.3c0,3.8-3,6.8-6.8,6.8s-6.8-3-6.8-6.8s3-6.8,6.8-6.8C55.8,67.4,59,70.5,59,74.3z"/>
	<path class="st1" d="M73.9,28.8c0.8,1.5,1.3,3.3,1.4,4.9v37.1c2.7-1.1,5.6-1.1,8.2,0V33.7c-0.1-2.9-0.8-5.8-2.1-8.5
		c-2.9-5.7-8.5-8.8-15.5-8.8c-5.2-0.3-10.2,2-13.6,6.1c-3.4-4-8.5-6.2-13.6-6.1c-7.1,0-12.6,3.2-15.5,8.8c-1.4,2.7-2,5.6-2.1,8.5
		v37.1c2.7-1.1,5.6-1.1,8.2,0v-37c0.1-1.8,0.5-3.4,1.4-4.9c1.5-2.8,4.2-4.2,8.1-4.2s6.6,1.4,8.2,4.3c0.8,1.6,1.3,3.4,1.4,5.2v29.9
		c2.7-1.1,5.6-1.1,8.2,0V34.1c0.1-1.8,0.5-3.5,1.4-5.2c1.5-2.9,4.2-4.3,8.2-4.3C69.7,24.6,72.4,26,73.9,28.8z"/>
</g>
</svg>
