<?xml version="1.0" encoding="UTF-8"?><svg id="Layer_2" xmlns="http://www.w3.org/2000/svg" viewBox="0 0 1024 1024"><g id="Layer_1-2"><circle cx="512" cy="512" r="512" fill="#de5726" stroke-width="0"/><path d="M811.83,751.67c0,32.82-26.6,59.39-59.39,59.39s-59.39-26.6-59.39-59.39,26.6-59.39,59.39-59.39,59.39,26.6,59.39,59.39Z" fill="#fff" stroke-width="0"/><path d="M330.94,751.67c0,32.82-26.6,59.42-59.39,59.42s-59.39-26.6-59.39-59.42,26.6-59.39,59.39-59.39,59.39,26.6,59.39,59.39Z" fill="#fff" stroke-width="0"/><path d="M572.22,692.28c0,33.28-26.96,60.24-60.24,60.24s-60.24-26.96-60.24-60.24,26.96-60.24,60.24-60.24,60.24,26.96,60.24,60.24Z" fill="#fff" stroke-width="0"/><path d="M704.07,290.88c11.44,21.06,11.93,43.72,11.93,43.72v327.52c11.26-4.58,23.55-7.14,36.44-7.14s25.18,2.56,36.44,7.14v-327.52c0-3.91-.53-39.11-19-75.16-25.89-50.54-74.66-78.39-137.39-78.39-50.93,0-92.7,18.61-120.55,52.99-27.85-34.38-69.62-52.99-120.55-52.99-62.69,0-111.49,27.85-137.39,78.39-18.47,36.05-19,71.25-19,75.16v327.52c11.26-4.58,23.55-7.14,36.44-7.14s25.18,2.56,36.44,7.14v-327.27c0-.21.46-22.87,11.93-43.97,13.5-24.86,36.9-36.94,71.54-36.94s58.36,12.5,72,38.29c11.65,21.99,12.11,45.57,12.11,45.57v264.94c11.26-4.58,23.55-7.14,36.44-7.14s25.18,2.56,36.44,7.14v-264.76c0-.85.6-24.05,12.11-45.75,13.64-25.75,37.19-38.29,72-38.29s58.07,12.08,71.54,36.94h.07Z" fill="#fff" stroke-width="0"/></g></svg>
